<svg height="284pt" viewBox="0 0 184 284" width="184pt" xmlns="http://www.w3.org/2000/svg"><g transform="translate(4 280)"><path d="m-4 4v-284h184v284z"/><path d="m31-229.5v-46h78v46z" fill="none" stroke="#fff"/><text fill="#fff" font-family="Times,serif" font-size="14" text-anchor="middle" x="70" y="-260.3">@collatz</text><path d="m31-252.5h78" fill="none" stroke="#fff"/><text fill="#fff" font-family="Times,serif" font-size="14" text-anchor="middle" x="50.5" y="-237.3">T</text><path d="m70-229.5v-23" fill="none" stroke="#fff"/><text fill="#fff" font-family="Times,serif" font-size="14" text-anchor="middle" x="89.5" y="-237.3">F</text><path d="m0-151.5v-36h54v36z" fill="none" stroke="#fff"/><text fill="#fff" font-family="Times,serif" font-size="14" text-anchor="middle" x="27" y="-165.8">Base</text><path d="m50-229.5c0 11.0442-3.4397 22.5195-7.6587 32.4408" fill="none" stroke="#fff"/><path d="m45.3792-195.294-7.4181 7.5645 1.0817-10.5394z" fill="#fff" stroke="#fff"/><path d="m72-146.5v-46h82v46z" fill="none" stroke="#fff"/><text fill="#fff" font-family="Times,serif" font-size="14" text-anchor="middle" x="113" y="-177.3">Continue</text><path d="m72-169.5h82" fill="none" stroke="#fff"/><text fill="#fff" font-family="Times,serif" font-size="14" text-anchor="middle" x="92.5" y="-154.3">T</text><path d="m113-146.5v-23" fill="none" stroke="#fff"/><text fill="#fff" font-family="Times,serif" font-size="14" text-anchor="middle" x="133.5" y="-154.3">F</text><path d="m90-229.5c0 9.2401 2.4077 18.782 5.6651 27.4631" fill="none" stroke="#fff"/><path d="m98.9573-203.2375.6635 10.574-7.1127-7.8523z" fill="#fff" stroke="#fff"/><path d="m50-73.5v-36h54v36z" fill="none" stroke="#fff"/><text fill="#fff" font-family="Times,serif" font-size="14" text-anchor="middle" x="77" y="-87.8">Odd</text><path d="m92-146.5c0 9.0344-1.9071 18.6188-4.3613 27.2123" fill="none" stroke="#fff"/><path d="m90.9675-118.206-6.3796 8.4588-.2878-10.5909z" fill="#fff" stroke="#fff"/><path d="m122-73.5v-36h54v36z" fill="none" stroke="#fff"/><text fill="#fff" font-family="Times,serif" font-size="14" text-anchor="middle" x="149" y="-87.8">Even</text><path d="m134-146.5c0 9.0344 1.9071 18.6188 4.3613 27.2123" fill="none" stroke="#fff"/><path d="m141.6999-120.3381-.2878 10.5909-6.3796-8.4588z" fill="#fff" stroke="#fff"/><path d="m75.5-.5v-36h75v36z" fill="none" stroke="#fff"/><text fill="#fff" font-family="Times,serif" font-size="14" text-anchor="middle" x="113" y="-14.8">Recurse</text><g stroke="#fff"><path d="m85.8989-73.4551c4.1106 8.3355 9.0806 18.4135 13.636 27.6509" fill="none"/><path d="m102.7948-47.1071 1.2839 10.5167-7.562-7.4206z" fill="#fff"/><path d="m140.1011-73.4551c-4.1106 8.3355-9.0806 18.4135-13.636 27.6509" fill="none"/><path d="m129.4833-44.011-7.562 7.4206 1.2839-10.5167z" fill="#fff"/></g></g></svg>