<svg height="37.551544mm" viewBox="0 0 237.23132 133.05665" width="66.95195mm" xmlns="http://www.w3.org/2000/svg" xmlns:xlink="http://www.w3.org/1999/xlink"><marker id="a" orient="auto" overflow="visible" refX="0" refY="0"><path d="m8.7185878 4.0337352-10.9258773-4.01772194 10.9258779-4.01772106c-1.7454984 2.3720609-1.7354408 5.6174519-.0000006 8.035443z" fill="#fff" fill-rule="evenodd" stroke="#fff" stroke-linejoin="round" stroke-width=".625" transform="matrix(-1.1 0 0 -1.1 -1.1 0)"/></marker><marker id="b" orient="auto" overflow="visible" refX="0" refY="0"><path d="m8.7185878 4.0337352-10.9258773-4.01772194 10.9258779-4.01772106c-1.7454984 2.3720609-1.7354408 5.6174519-.0000006 8.035443z" fill="#fff" fill-rule="evenodd" stroke="#fff" stroke-linejoin="round" stroke-width=".625" transform="matrix(-1.1 0 0 -1.1 -1.1 0)"/></marker><marker id="c" orient="auto" overflow="visible" refX="0" refY="0"><path d="m8.7185878 4.0337352-10.9258773-4.01772194 10.9258779-4.01772106c-1.7454984 2.3720609-1.7354408 5.6174519-.0000006 8.035443z" fill="#fff" fill-rule="evenodd" stroke="#fff" stroke-linejoin="round" stroke-width=".625" transform="matrix(-1.1 0 0 -1.1 -1.1 0)"/></marker><marker id="d" orient="auto" overflow="visible" refX="0" refY="0"><path d="m8.7185878 4.0337352-10.9258773-4.01772194 10.9258779-4.01772106c-1.7454984 2.3720609-1.7354408 5.6174519-.0000006 8.035443z" fill="#fff" fill-rule="evenodd" stroke="#fff" stroke-linejoin="round" stroke-width=".625" transform="matrix(-1.1 0 0 -1.1 -1.1 0)"/></marker><g transform="translate(-316.91968 -72.627465)"><rect fill="none" height="40.95274" rx=".05796852" ry=".031346157" stroke="#fff" width="72.014938" x="317.41968" y="160.88181"/><text fill="#fff" font-family="Sans" font-size="15" letter-spacing="0" line-height="125%" word-spacing="0" x="317.94553" xml:space="preserve" y="174.28711"><tspan x="317.94553" y="174.28711">main</tspan></text><text fill="#fff" font-family="Sans" font-size="15" letter-spacing="0" line-height="125%" word-spacing="0" x="357.34149" xml:space="preserve" y="198.78331"><tspan fill="#fff" font-family="monospace" font-size="12.5" x="357.34149" y="198.78331">main</tspan></text><text fill="#fff" font-family="Sans" font-size="15" letter-spacing="0" line-height="125%" word-spacing="0" x="451.28568" xml:space="preserve" y="162.16527"><tspan x="451.28568" y="162.16527">random</tspan></text><rect fill="none" height="56.238209" rx=".083485842" ry=".043046001" stroke="#fff" width="103.71539" x="449.93561" y="148.94591"/><text fill="#fff" font-family="Sans" font-size="15" letter-spacing="0" line-height="125%" word-spacing="0" x="460.37701" xml:space="preserve" y="184.38863"><tspan fill="#fff" font-family="monospace" font-size="12.5" x="460.37701" y="184.38863">rand_inrange</tspan></text><text fill="#fff" font-family="Sans" font-size="15" letter-spacing="0" line-height="125%" word-spacing="0" x="460.37701" xml:space="preserve" y="198.78329"><tspan fill="#fff" font-family="monospace" font-size="12.5" x="460.37701" y="198.78329">rand_init</tspan></text><text fill="#fff" font-family="Sans" font-size="15" letter-spacing="0" line-height="125%" word-spacing="0" x="351.53308" xml:space="preserve" y="87.05069"><tspan x="351.53308" y="87.05069">linux-x86_64</tspan></text><text fill="#fff" font-family="Sans" font-size="15" letter-spacing="0" line-height="125%" word-spacing="0" x="407.09146" xml:space="preserve" y="125.54724"><tspan fill="#fff" font-family="monospace" font-size="12.5" x="407.09146" y="125.54724">_start</tspan></text><rect fill="none" height="58.157181" rx=".083434194" ry=".044514824" stroke="#fff" stroke-width="1.25251591" width="103.65123" x="350.72018" y="73.253723"/><text fill="#fff" font-family="Sans" font-size="15" letter-spacing="0" line-height="125%" word-spacing="0" x="414.05576" xml:space="preserve" y="111.44009"><tspan fill="#fff" font-family="monospace" font-size="12.5" x="414.05576" y="111.44009">print</tspan></text><g fill="none" stroke="#fff"><path d="m383.92857 186.82649c0-31.76302-10.57798-78.76653 25.74829-78.76653" marker-end="url(#a)"/><path d="m402.29325 120.49648c-29.60767 0-30.80965 27.58465-30.80965 65.40738" marker-end="url(#d)"/><path d="m427.32143 129.32649c0 41.00136 3.58406 65.35714 30.89286 65.35714" marker-end="url(#c)"/><path d="m388.75 195.39792c26.08529 0 33.36835-14.46429 67.14286-14.46429" marker-end="url(#b)"/></g></g></svg>