<svg height="31.725077mm" viewBox="0 0 168.06298 112.41169" width="47.431107mm" xmlns="http://www.w3.org/2000/svg" xmlns:xlink="http://www.w3.org/1999/xlink"><marker id="a" orient="auto" overflow="visible" refX="0" refY="0"><path d="m5.77 0-8.65 5v-10z" fill="#fff" fill-rule="evenodd" stroke="#fff" stroke-width="1pt" transform="scale(.8)"/></marker><marker id="b" orient="auto" overflow="visible" refX="0" refY="0"><path d="m5.77 0-8.65 5v-10z" fill="#fff" fill-rule="evenodd" stroke="#fff" stroke-width="1pt" transform="scale(.8)"/></marker><marker id="c" orient="auto" overflow="visible" refX="0" refY="0"><path d="m5.77 0-8.65 5v-10z" fill="#fff" fill-rule="evenodd" stroke="#fff" stroke-width="1pt" transform="scale(.8)"/></marker><g transform="translate(-117.0092 -69.11232)"><rect fill="none" height="98.389427" rx=".047481984" ry=".073808104" stroke="#fff" width="119.07742" x="165.48282" y="82.62265"/><text fill="#fff" font-family="Sans" font-size="15" letter-spacing="0" line-height="125%" word-spacing="0" x="170.4025" xml:space="preserve" y="80.508804"><tspan x="170.4025" y="80.508804">runtime</tspan></text><text fill="#fff" font-family="Sans" font-size="15" letter-spacing="0" line-height="125%" word-spacing="0" x="278.17432" xml:space="preserve" y="139.63246"><tspan fill="#fff" font-family="monospace" text-anchor="end" x="278.17432" y="139.63246">rand_init</tspan></text><rect fill="none" height="54.951382" rx=".038366009" ry=".050113615" stroke="#fff" width="111.94359" x="169.3815" y="124.02606"/><text fill="#fff" font-family="Sans" font-size="15" letter-spacing="0" line-height="125%" word-spacing="0" x="116.21086" xml:space="preserve" y="108.63153"><tspan fill="#fff" font-family="monospace" x="116.21086" y="108.63153">main</tspan></text><text line-height="125%" style="font-size:15;font-family:Sans;letter-spacing:0;word-spacing:0;text-anchor:end;fill:#fff" x="278.10107" xml:space="preserve" y="171.95735"><tspan fill="#fff" font-family="monospace" text-anchor="end" x="278.10107" y="171.95735">rand_string</tspan></text><rect fill="none" height="35.372055" rx=".021557037" ry=".032258" stroke="#fff" width="62.898701" x="218.38753" y="85.259048"/><text line-height="125%" style="font-size:15;font-family:Sans;letter-spacing:0;word-spacing:0;text-anchor:end;fill:#fff" x="278.77408" xml:space="preserve" y="97.768036"><tspan fill="#fff" font-family="monospace" text-anchor="end" x="278.77408" y="97.768036">_start</tspan></text><text fill="#fff" font-family="Sans" font-size="15" letter-spacing="0" line-height="125%" word-spacing="0" x="278.77408" xml:space="preserve" y="114.6881"><tspan fill="#fff" font-family="monospace" text-anchor="end" x="278.77408" y="114.6881">print</tspan></text><g fill="none" stroke="#fff"><path d="m222.32143 93.612203c-23.80953-7.678572-40.05592-7.859852-63.92858 2.678571" marker-end="url(#c)"/><path d="m157.83634 107.49077c20.41193-3.39827 43.08598-2.55468 66.54379 3.78807" marker-end="url(#a)"/><path d="m157.07872 109.13226c5.51707 8.69139 19.19885 20.93594 30.43085 27.27413" marker-end="url(#b)"/></g><text fill="#fff" font-family="Sans" font-size="15" letter-spacing="0" line-height="125%" word-spacing="0" x="278.17432" xml:space="preserve" y="155.52531"><tspan fill="#fff" font-family="monospace" text-anchor="end" x="278.17432" y="155.52531">rand_inrange</tspan></text></g></svg>