<svg height="250" viewBox="0 0 450 250.00001" width="450" xmlns="http://www.w3.org/2000/svg" xmlns:xlink="http://www.w3.org/1999/xlink"><marker id="a" orient="auto" overflow="visible" refX="0" refY="0"><path d="m5.77 0-8.65 5v-10z" fill="#fff" fill-rule="evenodd" stroke="#fff" stroke-width="1pt" transform="matrix(.8 0 0 .8 -4.8 0)"/></marker><marker id="b" orient="auto" overflow="visible" refX="0" refY="0"><path d="m5.77 0-8.65 5v-10z" fill="#fff" fill-rule="evenodd" stroke="#fff" stroke-width="1pt" transform="matrix(.8 0 0 .8 -4.8 0)"/></marker><marker id="c" orient="auto" overflow="visible" refX="0" refY="0"><path d="m5.77 0-8.65 5v-10z" fill="#fff" fill-rule="evenodd" stroke="#fff" stroke-width="1pt" transform="matrix(.8 0 0 .8 -4.8 0)"/></marker><marker id="d" orient="auto" overflow="visible" refX="0" refY="0"><path d="m5.77 0-8.65 5v-10z" fill="#fff" fill-rule="evenodd" stroke="#fff" stroke-width="1pt" transform="matrix(.8 0 0 .8 -4.8 0)"/></marker><marker id="e" orient="auto" overflow="visible" refX="0" refY="0"><path d="m5.77 0-8.65 5v-10z" fill="#fff" fill-rule="evenodd" stroke="#fff" stroke-width="1pt" transform="matrix(.8 0 0 .8 -4.8 0)"/></marker><marker id="f" orient="auto" overflow="visible" refX="0" refY="0"><path d="m5.77 0-8.65 5v-10z" fill="#fff" fill-rule="evenodd" stroke="#fff" stroke-width="1pt" transform="matrix(.8 0 0 .8 -4.8 0)"/></marker><marker id="g" orient="auto" overflow="visible" refX="0" refY="0"><path d="m5.77 0-8.65 5v-10z" fill="#fff" fill-rule="evenodd" stroke="#fff" stroke-width="1pt" transform="matrix(.8 0 0 .8 -4.8 0)"/></marker><marker id="h" orient="auto" overflow="visible" refX="0" refY="0"><path d="m5.77 0-8.65 5v-10z" fill="#fff" fill-rule="evenodd" stroke="#fff" stroke-width="1pt" transform="matrix(.8 0 0 .8 -4.8 0)"/></marker><g transform="translate(-228.85366 -89.887902)"><rect fill="none" height="125.35715" rx=".10266101" ry=".061173305" stroke="#cf0" width="118.92858" x="295.81793110047" y="115.780749642264"/><text fill="#cf0" font-family="Sans" font-size="15" letter-spacing="0" line-height="125%" transform="rotate(90)" word-spacing="0" x="116.10616" xml:space="preserve" y="-419.30844"><tspan font-family="monospace" x="116.10616" y="-419.30844">libsyntax</tspan></text><rect fill="none" height="125.17066" rx=".14473595" ry=".061082304" stroke="#5fbcd3" stroke-width="1.18648469" width="167.67067" x="443.76834" y="115.87399"/><text fill="#5fbcd3" font-family="Sans" font-size="15" letter-spacing="0" line-height="125%" transform="matrix(0 1 -1 0 228.85366 126.76221)" word-spacing="0" x="-10.656049" xml:space="preserve" y="-385.45477"><tspan x="-10.656049" y="-385.45477">LLVM</tspan></text><g transform="translate(5.357143 -14.642857)"><rect fill="none" height="36.776829" rx=".10266098" ry=".06117335" stroke="#fff" stroke-width=".65174127" width="110.33049" x="294.84363" y="135.75951"/><text fill="#fff" font-family="Sans" font-size="15" letter-spacing="0" line-height="125%" word-spacing="0" x="328.84555" xml:space="preserve" y="159.50925"><tspan x="328.84555" y="159.50925">Lexer</tspan></text></g><text fill="#fff" font-family="Sans" font-size="15" letter-spacing="0" line-height="125%" word-spacing="0" x="359.49716" xml:space="preserve" y="263.12979"><tspan x="359.49716" y="263.12979">AST</tspan></text><text fill="#fff" font-family="Sans" font-size="15" letter-spacing="0" line-height="125%" word-spacing="0" x="359.65829" xml:space="preserve" y="185.46883"><tspan x="359.65829" y="185.46883">Tokens</tspan></text><text fill="#fff" font-family="Sans" font-size="15" letter-spacing="0" line-height="125%" word-spacing="0" x="454.78897" xml:space="preserve" y="224.01743"><tspan x="454.78897" y="224.01743">CFG</tspan></text><text fill="#fff" font-family="Sans" font-size="15" letter-spacing="0" line-height="125%" word-spacing="0" x="565.71429" xml:space="preserve" y="263.12979"><tspan x="565.71429" y="263.12979">*.rlib</tspan></text><g transform="translate(5.234591 7.7485278)"><text fill="#fff" font-family="Sans" font-size="15" letter-spacing="0" line-height="125%" word-spacing="0" x="325.78403" xml:space="preserve" y="216.29497"><tspan x="325.78403" y="216.29497">Parser</tspan></text><rect fill="none" height="36.776829" rx=".10266098" ry=".06117335" stroke="#fff" stroke-width=".65174127" width="110.33049" x="294.84363" y="192.54523"/></g><g transform="translate(6.8723718 41.925686)"><text fill="#fff" font-family="Sans" font-size="15" letter-spacing="0" line-height="125%" word-spacing="0" x="309.77695" xml:space="preserve" y="261.5257"><tspan x="309.77695" y="261.5257">Translation</tspan></text><rect fill="none" height="36.776829" rx=".10266098" ry=".06117335" stroke="#fff" stroke-width=".65174127" width="110.33049" x="294.84363" y="237.54523"/></g><g transform="translate(202.08562 -157.50002)"><text fill="#fff" font-family="Sans" font-size="15" letter-spacing="0" line-height="125%" word-spacing="0" x="312.87143" xml:space="preserve" y="301.14328"><tspan x="312.87143" y="301.14328">Optimizer</tspan></text><rect fill="none" height="36.776829" rx=".10266098" ry=".06117335" stroke="#fff" stroke-width=".65174127" width="110.33049" x="294.84363" y="278.61667"/></g><g transform="translate(202.08562 -114.39436)"><text fill="#fff" font-family="Sans" font-size="15" letter-spacing="0" line-height="125%" word-spacing="0" x="316.89243" xml:space="preserve" y="337.21472"><tspan x="316.89243" y="337.21472">Codegen</tspan></text><rect fill="none" height="36.776829" rx=".10266098" ry=".06117335" stroke="#fff" stroke-width=".65174127" width="110.33049" x="294.84363" y="314.68811"/></g><g transform="translate(202.08562 -72.717197)"><text fill="#fff" font-family="Sans" font-size="15" letter-spacing="0" line-height="125%" word-spacing="0" x="326.4725" xml:space="preserve" y="376.16858"><tspan x="326.4725" y="376.16858">Linker</tspan></text><rect fill="none" height="36.776829" rx=".10266098" ry=".06117335" stroke="#fff" stroke-width=".65174127" width="110.33049" x="294.84363" y="352.18811"/></g><g transform="translate(-94.142883 42.818426)"><g transform="translate(17.425131 1.0101525)"><rect height="44.642857" rx=".102661" ry=".061173301" stroke="#fff" width="29.285715" x="311.42856" y="68.790771"/><rect id="i" height="44.642857" rx=".102661" ry=".061173301" stroke="#fff" width="29.285715" x="311.42856" y="68.790771"/><use id="j" height="100%" width="100%" xlink:href="#i"/><use height="100%" width="100%" xlink:href="#j"/><use height="100%" transform="translate(6.057143 4.5642857)" width="100%" xlink:href="#j"/><use height="100%" transform="translate(12.114286 9.1285713)" width="100%" xlink:href="#j"/></g><text fill="#fff" font-family="Sans" font-size="15" letter-spacing="0" line-height="125%" word-spacing="0" x="347.99756" xml:space="preserve" y="105.15479"><tspan x="347.99756" y="105.15479">.rs</tspan></text></g><g fill="none" stroke="#fff"><path d="m357.14276 157.62394v42.13629" marker-end="url(#f)"/><path d="m357.14276 237.17751v41.54324" marker-end="url(#g)"/><path d="m276.07802 140.83015h23.54733" marker-end="url(#e)"/><path d="m412.32143 297.89791c40.10666 0 41.25-45.17158 41.25-79.19643 0-37.46655-.39774-79.19642 43.39285-79.19642" marker-end="url(#h)"/><path d="m357.14276 237.17751v41.54324" marker-end="url(#d)"/><path d="m552.09449 157.62394v42.13629" marker-end="url(#c)"/><path d="m552.09449 237.17751v41.54324" marker-end="url(#b)"/></g><g transform="translate(302.68616 201.17269)"><g transform="translate(17.425131 1.0101525)"><rect height="44.642857" rx=".102661" ry=".061173301" stroke="#fff" width="29.285715" x="311.42856" y="68.790771"/><rect height="44.642857" rx=".102661" ry=".061173301" stroke="#fff" width="29.285715" x="311.42856" y="68.790771"/><use height="100%" width="100%" xlink:href="#i"/><use height="100%" width="100%" xlink:href="#j"/><use height="100%" transform="translate(6.057143 4.5642857)" width="100%" xlink:href="#j"/><use height="100%" transform="translate(12.114286 9.1285713)" width="100%" xlink:href="#j"/></g><text fill="#fff" font-family="Sans" font-size="15" letter-spacing="0" line-height="125%" word-spacing="0" x="348.83713" xml:space="preserve" y="105.15479"><tspan x="348.83713" y="105.15479">./</tspan></text></g><path d="m607.08446 297.85932h23.54733" fill="none" marker-end="url(#a)" stroke="#fff"/><text font-family="Sans" font-size="15" letter-spacing="0" line-height="125%" word-spacing="0" x="300.2822" xml:space="preserve" y="330.95932"><tspan fill="#fff" font-family="monospace" x="300.2822" y="330.95932">librustc_trans</tspan></text><text fill="#fff" font-family="Sans" font-size="15" letter-spacing="0" line-height="125%" word-spacing="0" x="275.63934" xml:space="preserve" y="255.95934"><tspan font-family="monospace" font-size="12.50000095" x="275.63934" y="255.95934">librustc</tspan><tspan font-size="12.50000095" x="275.63934" y="271.58435">(analysis)</tspan></text></g></svg>