<svg height="54.771423" viewBox="0 0 247.05489 54.771426" width="247.05489" xmlns="http://www.w3.org/2000/svg" xmlns:xlink="http://www.w3.org/1999/xlink"><marker id="a" orient="auto" overflow="visible" refX="0" refY="0"><path d="m5.77 0-8.65 5v-10z" fill="#fff" fill-rule="evenodd" stroke="#fff" stroke-width="1pt" transform="matrix(.8 0 0 .8 -4.8 0)"/></marker><marker id="b" orient="auto" overflow="visible" refX="0" refY="0"><path d="m5.77 0-8.65 5v-10z" fill="#fff" fill-rule="evenodd" stroke="#fff" stroke-width="1pt" transform="matrix(.8 0 0 .8 -4.8 0)"/></marker><g transform="translate(-234.21082 -112.11935)"><g transform="translate(5.357143 -14.642857)"><rect fill="none" height="36.776829" rx=".10266098" ry=".06117335" stroke="#fff" stroke-width="1.00000012" width="110.33049" x="294.84363" y="135.75951"/><text line-height="125%" style="font-size:15;font-family:Sans;letter-spacing:0;word-spacing:0;text-anchor:middle;fill:#fff" x="350.11874" xml:space="preserve" y="159.50925"><tspan font-family="monospace" text-anchor="middle" x="350.11874" y="159.50925">ld</tspan></text></g><g transform="translate(-94.142883 42.818426)"><g transform="translate(17.425131 1.0101525)"><rect height="44.642857" rx=".102661" ry=".061173301" stroke="#fff" width="29.285715" x="311.42856" y="68.790771"/><rect id="c" height="44.642857" rx=".102661" ry=".061173301" stroke="#fff" width="29.285715" x="311.42856" y="68.790771"/><use id="d" height="100%" width="100%" xlink:href="#c"/><use height="100%" width="100%" xlink:href="#d"/><use height="100%" transform="translate(6.057143 4.5642857)" width="100%" xlink:href="#d"/><use height="100%" transform="translate(12.114286 9.1285713)" width="100%" xlink:href="#d"/></g><text fill="#fff" font-family="Sans" font-size="15" letter-spacing="0" line-height="125%" word-spacing="0" x="345.319" xml:space="preserve" y="105.15479"><tspan x="345.319" y="105.15479">*.o</tspan></text></g><path d="m276.07802 140.83015h23.54733" fill="none" marker-end="url(#b)" stroke="#fff"/><g transform="translate(88.400432 37.218413)"><text fill="#fff" font-family="Sans" font-size="15" letter-spacing="0" line-height="125%" word-spacing="0" x="349.76755" xml:space="preserve" y="107.44656"><tspan x="349.76755" y="107.44656">a.out</tspan></text><rect fill="none" height="28.82411" rx=".075302497" ry=".046576835" stroke="#fff" stroke-width="1.00000012" width="46.106113" x="346.25916" y="87.874596"/></g><path d="m410.54231 140.83015h23.54733" fill="none" marker-end="url(#a)" stroke="#fff"/></g></svg>