<svg height="54.771423" viewBox="0 0 247.05489 54.771426" width="247.05489" xmlns="http://www.w3.org/2000/svg" xmlns:xlink="http://www.w3.org/1999/xlink"><marker id="a" orient="auto" overflow="visible" refX="0" refY="0"><path d="m5.77 0-8.65 5v-10z" fill="#fff" fill-rule="evenodd" stroke="#fff" stroke-width="1pt" transform="matrix(.8 0 0 .8 -4.8 0)"/></marker><marker id="b" orient="auto" overflow="visible" refX="0" refY="0"><path d="m5.77 0-8.65 5v-10z" fill="#fff" fill-rule="evenodd" stroke="#fff" stroke-width="1pt" transform="matrix(.8 0 0 .8 -4.8 0)"/></marker><g transform="translate(-234.21082 -112.11935)"><g transform="translate(5.357143 -14.642857)"><rect fill="none" height="36.776829" rx=".10266098" ry=".06117335" stroke="#fff" stroke-width="1.00000012" width="110.33049" x="294.84363" y="135.75951"/><text line-height="125%" style="font-size:15;font-family:Sans;letter-spacing:0;word-spacing:0;text-anchor:middle;fill:#fff" x="350.11874" xml:space="preserve" y="159.50925"><tspan font-family="monospace" text-anchor="middle" x="350.11874" y="159.50925">llc</tspan></text></g><path d="m276.07802 140.83015h23.54733" fill="none" marker-end="url(#b)" stroke="#fff"/><path d="m410.54231 140.83015h23.54733" fill="none" marker-end="url(#a)" stroke="#fff"/><g transform="translate(-116.66055 37.218413)"><text line-height="125%" style="font-size:15;font-family:Sans;letter-spacing:0;word-spacing:0;text-anchor:middle;fill:#fff" x="379.56372" xml:space="preserve" y="107.44656"><tspan x="379.56372" y="107.44656">.ll</tspan></text><rect fill="none" height="29.075014" rx=".041890875" ry=".046982273" stroke="#fff" stroke-width="1.00000012" width="25.64889" x="366.84183" y="87.749146"/></g><g transform="translate(67.439762 37.218413)"><text line-height="125%" style="font-size:15;font-family:Sans;letter-spacing:0;word-spacing:0;text-anchor:middle;fill:#fff" x="379.56372" xml:space="preserve" y="107.44656"><tspan x="379.56372" y="107.44656">.s</tspan></text><rect fill="none" height="29.075014" rx=".041890875" ry=".046982273" stroke="#fff" stroke-width="1.00000012" width="25.64889" x="366.84183" y="87.749146"/></g></g></svg>